<mxfile host="app.diagrams.net" agent="Mozilla/5.0 (Windows NT 10.0; Win64; x64) AppleWebKit/537.36 (KHTML, like Gecko) Chrome/131.0.0.0 Safari/537.36" version="26.0.5">
  <diagram name="Página-1" id="H9RGfE5L6sBvxqywVH_o">
    <mxGraphModel dx="1280" dy="1806" grid="1" gridSize="10" guides="1" tooltips="1" connect="1" arrows="1" fold="1" page="1" pageScale="1" pageWidth="827" pageHeight="1169" math="0" shadow="0">
      <root>
        <mxCell id="0" />
        <mxCell id="1" parent="0" />
        <mxCell id="DNp5-iSwPfCoCIJPn0IL-1" value="Clientes" style="rounded=0;whiteSpace=wrap;html=1;" parent="1" vertex="1">
          <mxGeometry x="132" y="120" width="120" height="60" as="geometry" />
        </mxCell>
        <mxCell id="DNp5-iSwPfCoCIJPn0IL-3" value="" style="endArrow=none;html=1;rounded=0;" parent="1" target="DNp5-iSwPfCoCIJPn0IL-4" edge="1">
          <mxGeometry width="50" height="50" relative="1" as="geometry">
            <mxPoint x="142" y="120" as="sourcePoint" />
            <mxPoint x="132" y="90" as="targetPoint" />
          </mxGeometry>
        </mxCell>
        <mxCell id="DNp5-iSwPfCoCIJPn0IL-4" value="&lt;u&gt;Cédula&lt;/u&gt;" style="ellipse;whiteSpace=wrap;html=1;" parent="1" vertex="1">
          <mxGeometry x="12" y="50" width="60" height="30" as="geometry" />
        </mxCell>
        <mxCell id="DNp5-iSwPfCoCIJPn0IL-6" value="" style="endArrow=none;html=1;rounded=0;exitX=0.25;exitY=0;exitDx=0;exitDy=0;" parent="1" source="DNp5-iSwPfCoCIJPn0IL-1" target="DNp5-iSwPfCoCIJPn0IL-7" edge="1">
          <mxGeometry width="50" height="50" relative="1" as="geometry">
            <mxPoint x="152" y="130" as="sourcePoint" />
            <mxPoint x="142" y="100" as="targetPoint" />
          </mxGeometry>
        </mxCell>
        <mxCell id="DNp5-iSwPfCoCIJPn0IL-7" value="nombre" style="ellipse;whiteSpace=wrap;html=1;" parent="1" vertex="1">
          <mxGeometry x="72" y="30" width="60" height="30" as="geometry" />
        </mxCell>
        <mxCell id="DNp5-iSwPfCoCIJPn0IL-8" value="" style="endArrow=none;html=1;rounded=0;exitX=0.415;exitY=0.03;exitDx=0;exitDy=0;exitPerimeter=0;" parent="1" source="DNp5-iSwPfCoCIJPn0IL-1" target="DNp5-iSwPfCoCIJPn0IL-9" edge="1">
          <mxGeometry width="50" height="50" relative="1" as="geometry">
            <mxPoint x="212" y="120" as="sourcePoint" />
            <mxPoint x="192" y="100" as="targetPoint" />
          </mxGeometry>
        </mxCell>
        <mxCell id="DNp5-iSwPfCoCIJPn0IL-9" value="teléfono" style="ellipse;whiteSpace=wrap;html=1;" parent="1" vertex="1">
          <mxGeometry x="140" y="20" width="60" height="30" as="geometry" />
        </mxCell>
        <mxCell id="DNp5-iSwPfCoCIJPn0IL-12" value="" style="endArrow=none;html=1;rounded=0;exitX=0.635;exitY=-0.01;exitDx=0;exitDy=0;exitPerimeter=0;" parent="1" source="DNp5-iSwPfCoCIJPn0IL-1" target="DNp5-iSwPfCoCIJPn0IL-13" edge="1">
          <mxGeometry width="50" height="50" relative="1" as="geometry">
            <mxPoint x="242" y="120" as="sourcePoint" />
            <mxPoint x="222" y="100" as="targetPoint" />
          </mxGeometry>
        </mxCell>
        <mxCell id="DNp5-iSwPfCoCIJPn0IL-13" value="tipo" style="ellipse;whiteSpace=wrap;html=1;" parent="1" vertex="1">
          <mxGeometry x="210" y="20" width="60" height="30" as="geometry" />
        </mxCell>
        <mxCell id="DNp5-iSwPfCoCIJPn0IL-15" value="" style="endArrow=none;html=1;rounded=0;exitX=0.815;exitY=-0.063;exitDx=0;exitDy=0;exitPerimeter=0;" parent="1" source="DNp5-iSwPfCoCIJPn0IL-1" target="DNp5-iSwPfCoCIJPn0IL-16" edge="1">
          <mxGeometry width="50" height="50" relative="1" as="geometry">
            <mxPoint x="302" y="90" as="sourcePoint" />
            <mxPoint x="282" y="70" as="targetPoint" />
          </mxGeometry>
        </mxCell>
        <mxCell id="DNp5-iSwPfCoCIJPn0IL-16" value="email" style="ellipse;whiteSpace=wrap;html=1;" parent="1" vertex="1">
          <mxGeometry x="270" y="30" width="60" height="30" as="geometry" />
        </mxCell>
        <mxCell id="DNp5-iSwPfCoCIJPn0IL-19" value="" style="endArrow=none;html=1;rounded=0;exitX=0.923;exitY=-0.037;exitDx=0;exitDy=0;exitPerimeter=0;" parent="1" source="DNp5-iSwPfCoCIJPn0IL-1" target="DNp5-iSwPfCoCIJPn0IL-20" edge="1">
          <mxGeometry width="50" height="50" relative="1" as="geometry">
            <mxPoint x="340" y="110" as="sourcePoint" />
            <mxPoint x="320" y="90" as="targetPoint" />
          </mxGeometry>
        </mxCell>
        <mxCell id="DNp5-iSwPfCoCIJPn0IL-20" value="codigo_tienda" style="ellipse;whiteSpace=wrap;html=1;" parent="1" vertex="1">
          <mxGeometry x="330" y="40" width="60" height="30" as="geometry" />
        </mxCell>
        <mxCell id="DNp5-iSwPfCoCIJPn0IL-21" value="" style="endArrow=none;html=1;rounded=0;entryX=0;entryY=0.5;entryDx=0;entryDy=0;" parent="1" target="DNp5-iSwPfCoCIJPn0IL-22" edge="1">
          <mxGeometry width="50" height="50" relative="1" as="geometry">
            <mxPoint x="252" y="150" as="sourcePoint" />
            <mxPoint x="310" y="150" as="targetPoint" />
          </mxGeometry>
        </mxCell>
        <mxCell id="DNp5-iSwPfCoCIJPn0IL-22" value="registra venta" style="rhombus;whiteSpace=wrap;html=1;" parent="1" vertex="1">
          <mxGeometry x="359" y="110" width="80" height="80" as="geometry" />
        </mxCell>
        <mxCell id="DNp5-iSwPfCoCIJPn0IL-23" value="Ventas" style="rounded=0;whiteSpace=wrap;html=1;" parent="1" vertex="1">
          <mxGeometry x="555" y="120" width="120" height="60" as="geometry" />
        </mxCell>
        <mxCell id="DNp5-iSwPfCoCIJPn0IL-27" value="" style="endArrow=none;html=1;rounded=0;entryX=0;entryY=0.5;entryDx=0;entryDy=0;" parent="1" target="DNp5-iSwPfCoCIJPn0IL-23" edge="1">
          <mxGeometry width="50" height="50" relative="1" as="geometry">
            <mxPoint x="439" y="150" as="sourcePoint" />
            <mxPoint x="458" y="149.5" as="targetPoint" />
          </mxGeometry>
        </mxCell>
        <mxCell id="DNp5-iSwPfCoCIJPn0IL-30" value="(0,1)" style="text;html=1;align=center;verticalAlign=middle;whiteSpace=wrap;rounded=0;" parent="1" vertex="1">
          <mxGeometry x="270" y="118" width="60" height="30" as="geometry" />
        </mxCell>
        <mxCell id="DNp5-iSwPfCoCIJPn0IL-31" value="(1,N)" style="text;html=1;align=center;verticalAlign=middle;whiteSpace=wrap;rounded=0;" parent="1" vertex="1">
          <mxGeometry x="454" y="120" width="60" height="30" as="geometry" />
        </mxCell>
        <mxCell id="DNp5-iSwPfCoCIJPn0IL-32" value="" style="endArrow=none;html=1;rounded=0;exitX=0.112;exitY=-0.037;exitDx=0;exitDy=0;exitPerimeter=0;" parent="1" source="DNp5-iSwPfCoCIJPn0IL-23" edge="1">
          <mxGeometry width="50" height="50" relative="1" as="geometry">
            <mxPoint x="562" y="106" as="sourcePoint" />
            <mxPoint x="480" y="70" as="targetPoint" />
          </mxGeometry>
        </mxCell>
        <mxCell id="DNp5-iSwPfCoCIJPn0IL-33" value="&lt;u&gt;cod_venta&lt;/u&gt;" style="ellipse;whiteSpace=wrap;html=1;" parent="1" vertex="1">
          <mxGeometry x="432" y="36" width="60" height="30" as="geometry" />
        </mxCell>
        <mxCell id="DNp5-iSwPfCoCIJPn0IL-34" value="" style="endArrow=none;html=1;rounded=0;exitX=0.25;exitY=0;exitDx=0;exitDy=0;" parent="1" source="DNp5-iSwPfCoCIJPn0IL-23" target="DNp5-iSwPfCoCIJPn0IL-35" edge="1">
          <mxGeometry width="50" height="50" relative="1" as="geometry">
            <mxPoint x="582" y="106" as="sourcePoint" />
            <mxPoint x="562" y="86" as="targetPoint" />
          </mxGeometry>
        </mxCell>
        <mxCell id="DNp5-iSwPfCoCIJPn0IL-35" value="codigo_cliente" style="ellipse;whiteSpace=wrap;html=1;" parent="1" vertex="1">
          <mxGeometry x="470" y="16" width="82" height="30" as="geometry" />
        </mxCell>
        <mxCell id="DNp5-iSwPfCoCIJPn0IL-36" value="" style="endArrow=none;html=1;rounded=0;exitX=0.398;exitY=-0.037;exitDx=0;exitDy=0;exitPerimeter=0;" parent="1" source="DNp5-iSwPfCoCIJPn0IL-23" target="DNp5-iSwPfCoCIJPn0IL-37" edge="1">
          <mxGeometry width="50" height="50" relative="1" as="geometry">
            <mxPoint x="602" y="108" as="sourcePoint" />
            <mxPoint x="612" y="86" as="targetPoint" />
          </mxGeometry>
        </mxCell>
        <mxCell id="DNp5-iSwPfCoCIJPn0IL-37" value="codigo_producto" style="ellipse;whiteSpace=wrap;html=1;" parent="1" vertex="1">
          <mxGeometry x="552" y="-4" width="70" height="34" as="geometry" />
        </mxCell>
        <mxCell id="DNp5-iSwPfCoCIJPn0IL-38" value="" style="endArrow=none;html=1;rounded=0;exitX=0.618;exitY=-0.01;exitDx=0;exitDy=0;exitPerimeter=0;" parent="1" source="DNp5-iSwPfCoCIJPn0IL-23" target="DNp5-iSwPfCoCIJPn0IL-39" edge="1">
          <mxGeometry width="50" height="50" relative="1" as="geometry">
            <mxPoint x="628" y="105" as="sourcePoint" />
            <mxPoint x="642" y="86" as="targetPoint" />
          </mxGeometry>
        </mxCell>
        <mxCell id="DNp5-iSwPfCoCIJPn0IL-39" value="cantidad" style="ellipse;whiteSpace=wrap;html=1;" parent="1" vertex="1">
          <mxGeometry x="630" y="6" width="60" height="30" as="geometry" />
        </mxCell>
        <mxCell id="DNp5-iSwPfCoCIJPn0IL-40" value="" style="endArrow=none;html=1;rounded=0;exitX=0.75;exitY=0;exitDx=0;exitDy=0;" parent="1" source="DNp5-iSwPfCoCIJPn0IL-23" target="DNp5-iSwPfCoCIJPn0IL-41" edge="1">
          <mxGeometry width="50" height="50" relative="1" as="geometry">
            <mxPoint x="650" y="102" as="sourcePoint" />
            <mxPoint x="702" y="56" as="targetPoint" />
          </mxGeometry>
        </mxCell>
        <mxCell id="DNp5-iSwPfCoCIJPn0IL-41" value="precio&lt;br&gt;_total" style="ellipse;whiteSpace=wrap;html=1;" parent="1" vertex="1">
          <mxGeometry x="690" y="16" width="60" height="30" as="geometry" />
        </mxCell>
        <mxCell id="DNp5-iSwPfCoCIJPn0IL-42" value="" style="endArrow=none;html=1;rounded=0;" parent="1" target="DNp5-iSwPfCoCIJPn0IL-43" edge="1">
          <mxGeometry width="50" height="50" relative="1" as="geometry">
            <mxPoint x="670" y="120" as="sourcePoint" />
            <mxPoint x="740" y="76" as="targetPoint" />
          </mxGeometry>
        </mxCell>
        <mxCell id="DNp5-iSwPfCoCIJPn0IL-43" value="fecha_pedido" style="ellipse;whiteSpace=wrap;html=1;" parent="1" vertex="1">
          <mxGeometry x="750" y="26" width="90" height="34" as="geometry" />
        </mxCell>
        <mxCell id="DNp5-iSwPfCoCIJPn0IL-45" style="edgeStyle=orthogonalEdgeStyle;rounded=0;orthogonalLoop=1;jettySize=auto;html=1;exitX=0.5;exitY=1;exitDx=0;exitDy=0;" parent="1" source="DNp5-iSwPfCoCIJPn0IL-37" target="DNp5-iSwPfCoCIJPn0IL-37" edge="1">
          <mxGeometry relative="1" as="geometry" />
        </mxCell>
        <mxCell id="DNp5-iSwPfCoCIJPn0IL-47" value="" style="endArrow=none;html=1;rounded=0;entryX=0;entryY=0.5;entryDx=0;entryDy=0;" parent="1" target="DNp5-iSwPfCoCIJPn0IL-49" edge="1">
          <mxGeometry width="50" height="50" relative="1" as="geometry">
            <mxPoint x="677" y="156" as="sourcePoint" />
            <mxPoint x="790" y="155" as="targetPoint" />
          </mxGeometry>
        </mxCell>
        <mxCell id="DNp5-iSwPfCoCIJPn0IL-48" value="(0,N)" style="text;html=1;align=center;verticalAlign=middle;whiteSpace=wrap;rounded=0;" parent="1" vertex="1">
          <mxGeometry x="692" y="125" width="60" height="30" as="geometry" />
        </mxCell>
        <mxCell id="DNp5-iSwPfCoCIJPn0IL-49" value="compuesto por&amp;nbsp;" style="rhombus;whiteSpace=wrap;html=1;" parent="1" vertex="1">
          <mxGeometry x="780" y="116" width="80" height="80" as="geometry" />
        </mxCell>
        <mxCell id="DNp5-iSwPfCoCIJPn0IL-51" value="" style="endArrow=none;html=1;rounded=0;entryX=-0.01;entryY=0.627;entryDx=0;entryDy=0;exitX=1;exitY=0.5;exitDx=0;exitDy=0;entryPerimeter=0;" parent="1" source="DNp5-iSwPfCoCIJPn0IL-49" target="DNp5-iSwPfCoCIJPn0IL-53" edge="1">
          <mxGeometry width="50" height="50" relative="1" as="geometry">
            <mxPoint x="880" y="154" as="sourcePoint" />
            <mxPoint x="1001" y="153.5" as="targetPoint" />
          </mxGeometry>
        </mxCell>
        <mxCell id="DNp5-iSwPfCoCIJPn0IL-52" value="(1,N)" style="text;html=1;align=center;verticalAlign=middle;whiteSpace=wrap;rounded=0;" parent="1" vertex="1">
          <mxGeometry x="890" y="125" width="60" height="30" as="geometry" />
        </mxCell>
        <mxCell id="DNp5-iSwPfCoCIJPn0IL-53" value="Productos" style="rounded=0;whiteSpace=wrap;html=1;" parent="1" vertex="1">
          <mxGeometry x="970" y="118" width="120" height="60" as="geometry" />
        </mxCell>
        <mxCell id="DNp5-iSwPfCoCIJPn0IL-54" value="" style="endArrow=none;html=1;rounded=0;exitX=0.25;exitY=0;exitDx=0;exitDy=0;entryX=1;entryY=1;entryDx=0;entryDy=0;" parent="1" source="DNp5-iSwPfCoCIJPn0IL-53" target="DNp5-iSwPfCoCIJPn0IL-55" edge="1">
          <mxGeometry width="50" height="50" relative="1" as="geometry">
            <mxPoint x="1017" y="112" as="sourcePoint" />
            <mxPoint x="929" y="64" as="targetPoint" />
          </mxGeometry>
        </mxCell>
        <mxCell id="DNp5-iSwPfCoCIJPn0IL-55" value="&lt;u&gt;cod_producto&lt;/u&gt;" style="ellipse;whiteSpace=wrap;html=1;" parent="1" vertex="1">
          <mxGeometry x="910" y="36" width="60" height="30" as="geometry" />
        </mxCell>
        <mxCell id="DNp5-iSwPfCoCIJPn0IL-56" value="" style="endArrow=none;html=1;rounded=0;exitX=0.5;exitY=0;exitDx=0;exitDy=0;" parent="1" source="DNp5-iSwPfCoCIJPn0IL-53" edge="1">
          <mxGeometry width="50" height="50" relative="1" as="geometry">
            <mxPoint x="1034" y="114" as="sourcePoint" />
            <mxPoint x="1030" y="50" as="targetPoint" />
          </mxGeometry>
        </mxCell>
        <mxCell id="DNp5-iSwPfCoCIJPn0IL-58" value="" style="endArrow=none;html=1;rounded=0;exitX=0.75;exitY=0;exitDx=0;exitDy=0;entryX=0.5;entryY=1;entryDx=0;entryDy=0;" parent="1" source="DNp5-iSwPfCoCIJPn0IL-53" target="DNp5-iSwPfCoCIJPn0IL-61" edge="1">
          <mxGeometry width="50" height="50" relative="1" as="geometry">
            <mxPoint x="1052" y="112" as="sourcePoint" />
            <mxPoint x="1110" y="50" as="targetPoint" />
          </mxGeometry>
        </mxCell>
        <mxCell id="DNp5-iSwPfCoCIJPn0IL-60" value="nombre" style="ellipse;whiteSpace=wrap;html=1;" parent="1" vertex="1">
          <mxGeometry x="1000" y="30" width="60" height="30" as="geometry" />
        </mxCell>
        <mxCell id="DNp5-iSwPfCoCIJPn0IL-61" value="precio_unitario" style="ellipse;whiteSpace=wrap;html=1;" parent="1" vertex="1">
          <mxGeometry x="1090" y="36" width="60" height="30" as="geometry" />
        </mxCell>
        <mxCell id="DNp5-iSwPfCoCIJPn0IL-64" value="" style="endArrow=none;html=1;rounded=0;exitX=0.5;exitY=1;exitDx=0;exitDy=0;" parent="1" source="DNp5-iSwPfCoCIJPn0IL-1" edge="1">
          <mxGeometry width="50" height="50" relative="1" as="geometry">
            <mxPoint x="170" y="210" as="sourcePoint" />
            <mxPoint x="192" y="240" as="targetPoint" />
          </mxGeometry>
        </mxCell>
        <mxCell id="DNp5-iSwPfCoCIJPn0IL-65" value="Realiza compra" style="rhombus;whiteSpace=wrap;html=1;" parent="1" vertex="1">
          <mxGeometry x="152" y="240" width="80" height="80" as="geometry" />
        </mxCell>
        <mxCell id="DNp5-iSwPfCoCIJPn0IL-66" value="Tiendas" style="rounded=0;whiteSpace=wrap;html=1;" parent="1" vertex="1">
          <mxGeometry x="132" y="380" width="120" height="60" as="geometry" />
        </mxCell>
        <mxCell id="DNp5-iSwPfCoCIJPn0IL-69" value="" style="endArrow=none;html=1;rounded=0;entryX=0.5;entryY=0;entryDx=0;entryDy=0;" parent="1" target="DNp5-iSwPfCoCIJPn0IL-66" edge="1">
          <mxGeometry width="50" height="50" relative="1" as="geometry">
            <mxPoint x="192" y="320" as="sourcePoint" />
            <mxPoint x="191.5" y="370" as="targetPoint" />
          </mxGeometry>
        </mxCell>
        <mxCell id="DNp5-iSwPfCoCIJPn0IL-70" value="" style="endArrow=none;html=1;rounded=0;entryX=0.157;entryY=1.013;entryDx=0;entryDy=0;entryPerimeter=0;exitX=0.5;exitY=0;exitDx=0;exitDy=0;" parent="1" source="DNp5-iSwPfCoCIJPn0IL-75" target="DNp5-iSwPfCoCIJPn0IL-66" edge="1">
          <mxGeometry width="50" height="50" relative="1" as="geometry">
            <mxPoint x="110" y="490" as="sourcePoint" />
            <mxPoint x="80" y="440" as="targetPoint" />
          </mxGeometry>
        </mxCell>
        <mxCell id="DNp5-iSwPfCoCIJPn0IL-71" value="" style="endArrow=none;html=1;rounded=0;exitX=0.5;exitY=0;exitDx=0;exitDy=0;" parent="1" source="DNp5-iSwPfCoCIJPn0IL-76" edge="1">
          <mxGeometry width="50" height="50" relative="1" as="geometry">
            <mxPoint x="150" y="490" as="sourcePoint" />
            <mxPoint x="170" y="440" as="targetPoint" />
          </mxGeometry>
        </mxCell>
        <mxCell id="DNp5-iSwPfCoCIJPn0IL-72" value="" style="endArrow=none;html=1;rounded=0;entryX=0.5;entryY=1;entryDx=0;entryDy=0;exitX=0.5;exitY=0;exitDx=0;exitDy=0;" parent="1" source="DNp5-iSwPfCoCIJPn0IL-77" target="DNp5-iSwPfCoCIJPn0IL-66" edge="1">
          <mxGeometry width="50" height="50" relative="1" as="geometry">
            <mxPoint x="190" y="490" as="sourcePoint" />
            <mxPoint x="180" y="450" as="targetPoint" />
          </mxGeometry>
        </mxCell>
        <mxCell id="DNp5-iSwPfCoCIJPn0IL-73" value="" style="endArrow=none;html=1;rounded=0;entryX=0.75;entryY=1;entryDx=0;entryDy=0;exitX=0.5;exitY=0;exitDx=0;exitDy=0;" parent="1" source="DNp5-iSwPfCoCIJPn0IL-78" target="DNp5-iSwPfCoCIJPn0IL-66" edge="1">
          <mxGeometry width="50" height="50" relative="1" as="geometry">
            <mxPoint x="270" y="500" as="sourcePoint" />
            <mxPoint x="231" y="440" as="targetPoint" />
          </mxGeometry>
        </mxCell>
        <mxCell id="DNp5-iSwPfCoCIJPn0IL-74" value="" style="endArrow=none;html=1;rounded=0;entryX=0.93;entryY=1.04;entryDx=0;entryDy=0;entryPerimeter=0;exitX=0.5;exitY=0;exitDx=0;exitDy=0;" parent="1" source="DNp5-iSwPfCoCIJPn0IL-79" target="DNp5-iSwPfCoCIJPn0IL-66" edge="1">
          <mxGeometry width="50" height="50" relative="1" as="geometry">
            <mxPoint x="290" y="480" as="sourcePoint" />
            <mxPoint x="234" y="440" as="targetPoint" />
          </mxGeometry>
        </mxCell>
        <mxCell id="DNp5-iSwPfCoCIJPn0IL-75" value="&lt;u&gt;cod_tienda&lt;/u&gt;" style="ellipse;whiteSpace=wrap;html=1;" parent="1" vertex="1">
          <mxGeometry x="40" y="490" width="60" height="30" as="geometry" />
        </mxCell>
        <mxCell id="DNp5-iSwPfCoCIJPn0IL-76" value="ciudad" style="ellipse;whiteSpace=wrap;html=1;" parent="1" vertex="1">
          <mxGeometry x="100" y="495" width="60" height="30" as="geometry" />
        </mxCell>
        <mxCell id="DNp5-iSwPfCoCIJPn0IL-77" value="tipologia" style="ellipse;whiteSpace=wrap;html=1;" parent="1" vertex="1">
          <mxGeometry x="160" y="500" width="60" height="30" as="geometry" />
        </mxCell>
        <mxCell id="DNp5-iSwPfCoCIJPn0IL-78" value="tamano_mt2" style="ellipse;whiteSpace=wrap;html=1;" parent="1" vertex="1">
          <mxGeometry x="220" y="500" width="70" height="30" as="geometry" />
        </mxCell>
        <mxCell id="DNp5-iSwPfCoCIJPn0IL-79" value="numero_fabrica" style="ellipse;whiteSpace=wrap;html=1;" parent="1" vertex="1">
          <mxGeometry x="290" y="490" width="80" height="40" as="geometry" />
        </mxCell>
        <mxCell id="DNp5-iSwPfCoCIJPn0IL-82" value="" style="endArrow=none;html=1;rounded=0;entryX=0;entryY=0.5;entryDx=0;entryDy=0;" parent="1" target="DNp5-iSwPfCoCIJPn0IL-83" edge="1">
          <mxGeometry width="50" height="50" relative="1" as="geometry">
            <mxPoint x="252" y="409.5" as="sourcePoint" />
            <mxPoint x="350" y="410" as="targetPoint" />
          </mxGeometry>
        </mxCell>
        <mxCell id="DNp5-iSwPfCoCIJPn0IL-83" value="Asociada a" style="rhombus;whiteSpace=wrap;html=1;" parent="1" vertex="1">
          <mxGeometry x="359" y="370" width="80" height="80" as="geometry" />
        </mxCell>
        <mxCell id="DNp5-iSwPfCoCIJPn0IL-84" value="" style="endArrow=none;html=1;rounded=0;entryX=0;entryY=0.5;entryDx=0;entryDy=0;exitX=1;exitY=0.5;exitDx=0;exitDy=0;" parent="1" source="DNp5-iSwPfCoCIJPn0IL-83" target="DNp5-iSwPfCoCIJPn0IL-86" edge="1">
          <mxGeometry width="50" height="50" relative="1" as="geometry">
            <mxPoint x="445" y="409.5" as="sourcePoint" />
            <mxPoint x="552" y="410" as="targetPoint" />
          </mxGeometry>
        </mxCell>
        <mxCell id="DNp5-iSwPfCoCIJPn0IL-86" value="CentroDistribucion" style="rounded=0;whiteSpace=wrap;html=1;" parent="1" vertex="1">
          <mxGeometry x="555" y="380" width="120" height="60" as="geometry" />
        </mxCell>
        <mxCell id="DNp5-iSwPfCoCIJPn0IL-87" value="(0,1)" style="text;html=1;align=center;verticalAlign=middle;whiteSpace=wrap;rounded=0;" parent="1" vertex="1">
          <mxGeometry x="192" y="200" width="60" height="30" as="geometry" />
        </mxCell>
        <mxCell id="DNp5-iSwPfCoCIJPn0IL-88" value="(1,N)" style="text;html=1;align=center;verticalAlign=middle;whiteSpace=wrap;rounded=0;" parent="1" vertex="1">
          <mxGeometry x="190" y="340" width="60" height="30" as="geometry" />
        </mxCell>
        <mxCell id="DNp5-iSwPfCoCIJPn0IL-90" value="" style="endArrow=none;html=1;rounded=0;exitX=0.192;exitY=0.013;exitDx=0;exitDy=0;exitPerimeter=0;entryX=0.5;entryY=1;entryDx=0;entryDy=0;" parent="1" source="DNp5-iSwPfCoCIJPn0IL-86" target="DNp5-iSwPfCoCIJPn0IL-91" edge="1">
          <mxGeometry width="50" height="50" relative="1" as="geometry">
            <mxPoint x="569" y="380" as="sourcePoint" />
            <mxPoint x="540" y="340" as="targetPoint" />
          </mxGeometry>
        </mxCell>
        <mxCell id="DNp5-iSwPfCoCIJPn0IL-91" value="&lt;u&gt;cod_fabrica&lt;/u&gt;" style="ellipse;whiteSpace=wrap;html=1;" parent="1" vertex="1">
          <mxGeometry x="470" y="290" width="60" height="30" as="geometry" />
        </mxCell>
        <mxCell id="DNp5-iSwPfCoCIJPn0IL-92" value="" style="endArrow=none;html=1;rounded=0;exitX=0.418;exitY=0;exitDx=0;exitDy=0;exitPerimeter=0;entryX=0.5;entryY=1;entryDx=0;entryDy=0;" parent="1" source="DNp5-iSwPfCoCIJPn0IL-86" target="DNp5-iSwPfCoCIJPn0IL-93" edge="1">
          <mxGeometry width="50" height="50" relative="1" as="geometry">
            <mxPoint x="656.5" y="361" as="sourcePoint" />
            <mxPoint x="618.5" y="320" as="targetPoint" />
          </mxGeometry>
        </mxCell>
        <mxCell id="DNp5-iSwPfCoCIJPn0IL-93" value="país" style="ellipse;whiteSpace=wrap;html=1;" parent="1" vertex="1">
          <mxGeometry x="552" y="270" width="60" height="30" as="geometry" />
        </mxCell>
        <mxCell id="DNp5-iSwPfCoCIJPn0IL-94" value="" style="endArrow=none;html=1;rounded=0;exitX=0.658;exitY=-0.04;exitDx=0;exitDy=0;exitPerimeter=0;entryX=0.5;entryY=1;entryDx=0;entryDy=0;" parent="1" source="DNp5-iSwPfCoCIJPn0IL-86" target="DNp5-iSwPfCoCIJPn0IL-95" edge="1">
          <mxGeometry width="50" height="50" relative="1" as="geometry">
            <mxPoint x="813" y="355.5" as="sourcePoint" />
            <mxPoint x="775" y="314.5" as="targetPoint" />
          </mxGeometry>
        </mxCell>
        <mxCell id="DNp5-iSwPfCoCIJPn0IL-95" value="ciudad" style="ellipse;whiteSpace=wrap;html=1;" parent="1" vertex="1">
          <mxGeometry x="632" y="270" width="60" height="30" as="geometry" />
        </mxCell>
        <mxCell id="DNp5-iSwPfCoCIJPn0IL-96" value="" style="endArrow=none;html=1;rounded=0;exitX=0.818;exitY=-0.027;exitDx=0;exitDy=0;exitPerimeter=0;entryX=0.5;entryY=1;entryDx=0;entryDy=0;" parent="1" source="DNp5-iSwPfCoCIJPn0IL-86" target="DNp5-iSwPfCoCIJPn0IL-97" edge="1">
          <mxGeometry width="50" height="50" relative="1" as="geometry">
            <mxPoint x="970" y="380" as="sourcePoint" />
            <mxPoint x="750" y="310" as="targetPoint" />
          </mxGeometry>
        </mxCell>
        <mxCell id="DNp5-iSwPfCoCIJPn0IL-97" value="&lt;div style=&quot;text-align: justify;&quot;&gt;&lt;span style=&quot;background-color: initial;&quot;&gt;numero_empleados&lt;/span&gt;&lt;/div&gt;" style="ellipse;whiteSpace=wrap;html=1;align=right;" parent="1" vertex="1">
          <mxGeometry x="710" y="270" width="100" height="50" as="geometry" />
        </mxCell>
        <mxCell id="63mzEzlJMRKimVT-fmqJ-1" value="(1,1)" style="text;html=1;align=center;verticalAlign=middle;whiteSpace=wrap;rounded=0;" vertex="1" parent="1">
          <mxGeometry x="460" y="370" width="60" height="30" as="geometry" />
        </mxCell>
        <mxCell id="63mzEzlJMRKimVT-fmqJ-2" value="(1,N)" style="text;html=1;align=center;verticalAlign=middle;whiteSpace=wrap;rounded=0;" vertex="1" parent="1">
          <mxGeometry x="290" y="370" width="60" height="30" as="geometry" />
        </mxCell>
      </root>
    </mxGraphModel>
  </diagram>
</mxfile>
